<svg xmlns="http://www.w3.org/2000/svg" viewBox="0 0 100 100" width="100" height="100">
  <!-- Escudo rojo con efecto 3D -->
  <path d="M50,15 L85,30 L85,55 C85,75 70,85 50,90 C30,85 15,75 15,55 L15,30 Z" fill="#F44336" stroke="#D32F2F" stroke-width="2"/>
  
  <!-- Reflejo del escudo -->
  <path d="M50,15 L75,27 L75,50 C75,65 65,75 50,80 C35,75 25,65 25,50 L25,27 Z" fill="#EF5350" opacity="0.3"/>
  
  <!-- Línea diagonal (X) gruesa -->
  <line x1="30" y1="35" x2="70" y2="65" stroke="white" stroke-width="8" stroke-linecap="round"/>
  <line x1="70" y1="35" x2="30" y2="65" stroke="white" stroke-width="8" stroke-linecap="round"/>
  
  <!-- Borde interior -->
  <path d="M50,20 L78,32 L78,55 C78,72 67,82 50,86 C33,82 22,72 22,55 L22,32 Z" fill="none" stroke="#FFF" stroke-width="1" opacity="0.5"/>
</svg>
