<svg xmlns="http://www.w3.org/2000/svg" viewBox="0 0 100 100" width="100" height="100">
  <!-- Escudo verde con efecto 3D -->
  <path d="M50,15 L85,30 L85,55 C85,75 70,85 50,90 C30,85 15,75 15,55 L15,30 Z" fill="#4CAF50" stroke="#2E7D32" stroke-width="2"/>
  
  <!-- Reflejo del escudo -->
  <path d="M50,15 L75,27 L75,50 C75,65 65,75 50,80 C35,75 25,65 25,50 L25,27 Z" fill="#66BB6A" opacity="0.3"/>
  
  <!-- Check mark grande -->
  <path d="M30,50 L45,65 L70,35" fill="none" stroke="white" stroke-width="8" stroke-linecap="round" stroke-linejoin="round"/>
  
  <!-- Borde interior -->
  <path d="M50,20 L78,32 L78,55 C78,72 67,82 50,86 C33,82 22,72 22,55 L22,32 Z" fill="none" stroke="#FFF" stroke-width="1" opacity="0.5"/>
</svg>
