<svg xmlns="http://www.w3.org/2000/svg" viewBox="0 0 100 100" width="100" height="100">
  <!-- Sombra -->
  <ellipse cx="50" cy="90" rx="30" ry="5" fill="#222" opacity="0.3"/>
  
  <!-- Escudo principal con efecto 3D -->
  <path d="M50,10 L85,25 L85,50 C85,70 70,85 50,90 C30,85 15,70 15,50 L15,25 Z" fill="#FF5722" stroke="#E64A19" stroke-width="2"/>
  
  <!-- Reflejo del escudo para efecto 3D -->
  <path d="M50,15 L75,27 L75,50 C75,65 65,78 50,82 C35,78 25,65 25,50 L25,27 Z" fill="#FF9800" opacity="0.4"/>
  
  <!-- Borde interior del escudo -->
  <path d="M50,20 L78,32 L78,50 C78,67 67,80 50,84 C33,80 22,67 22,50 L22,32 Z" fill="none" stroke="#FFF" stroke-width="1" opacity="0.7"/>
  
  <!-- Círculo central con candado -->
  <circle cx="50" cy="50" r="15" fill="#333" stroke="#222" stroke-width="1"/>
  
  <!-- Cuerpo del candado -->
  <rect x="45" y="45" width="10" height="8" rx="1" ry="1" fill="#FFD54F"/>
  
  <!-- Arco del candado -->
  <path d="M45,45 
           A5,5 0 1,1 55,45 
           L53,42 
           A3,3 0 1,0 47,42 
           Z" fill="#FFD54F"/>
  
  <!-- Detalle del candado -->
  <circle cx="50" cy="49" r="1" fill="#333"/>
  
  <!-- Líneas decorativas en el escudo -->
  <line x1="35" y1="30" x2="65" y2="30" stroke="#FFF" stroke-width="1" opacity="0.5"/>
  <line x1="30" y1="35" x2="70" y2="35" stroke="#FFF" stroke-width="1" opacity="0.3"/>
  <line x1="25" y1="40" x2="75" y2="40" stroke="#FFF" stroke-width="1" opacity="0.2"/>
</svg>
